<?xml version="1.0" encoding="UTF-8"?>
<svg version="1.1" xmlns="http://www.w3.org/2000/svg" width="500" height="500">
<path d="M0 0 C165 0 330 0 500 0 C500 165 500 330 500 500 C335 500 170 500 0 500 C0 335 0 170 0 0 Z " fill="#F8F9FC" transform="translate(0,0)"/>
<path d="M0 0 C2.82535522 2.52298324 4.52088685 5.35196508 6.4140625 8.6171875 C6.74116714 9.17819656 7.06827179 9.73920563 7.4052887 10.31721497 C8.48280121 12.16736052 9.55382915 14.0211769 10.625 15.875 C11.37751682 17.16931417 12.1305356 18.46333663 12.8840332 19.75708008 C14.45835261 22.46109896 16.03047089 25.16637969 17.60107422 27.87255859 C21.0813769 33.86540101 24.58702108 39.84337911 28.09320068 45.82110596 C29.15954371 47.63981885 30.22469779 49.45922297 31.28955078 51.27880859 C31.95067871 52.40754395 32.61180664 53.5362793 33.29296875 54.69921875 C33.9173584 55.76575684 34.54174805 56.83229492 35.18505859 57.93115234 C37.40004822 61.67643343 39.67000275 65.38669817 41.9621582 69.08520508 C43 71 43 71 43 73 C43.66 73 44.32 73 45 73 C45.20238281 72.23171875 45.40476562 71.4634375 45.61328125 70.671875 C47.56254779 65.51043683 50.36598075 60.97899821 53.1875 56.25 C54.45773115 54.09806923 55.72723712 51.94571027 56.99609375 49.79296875 C57.65464355 48.67841309 58.31319336 47.56385742 58.99169922 46.41552734 C62.87444242 39.81212626 66.68037487 33.16431301 70.49682617 26.52246094 C71.63718326 24.54137691 72.79664393 22.57114263 73.97673035 20.61346436 C75.47929971 18.04299504 76.69166018 15.4453061 77.85183716 12.70446777 C82.96507187 1.4175393 82.96507187 1.4175393 88.03213501 -0.94915962 C93.94760942 -2.3986215 99.97640086 -1.95180656 106.0078125 -1.66015625 C107.94397373 -1.62840449 109.8802726 -1.60422657 111.81661987 -1.58726501 C116.88717078 -1.52267912 121.94929608 -1.35606235 127.01654053 -1.16729736 C132.19736702 -0.99263304 137.37957123 -0.91559423 142.5625 -0.83007812 C152.71201445 -0.64834628 162.85530402 -0.35867116 173 0 C173.42035522 0.72968491 173.84071045 1.45936981 174.27380371 2.21116638 C175.86603948 4.97456624 177.45870278 7.73771915 179.05163574 10.50071716 C179.73490684 11.68606686 180.41801798 12.87150877 181.10095215 14.05705261 C185.53102127 21.74714915 189.98971916 29.41916461 194.5 37.0625 C195.04441742 37.98554932 195.58883484 38.90859863 196.14974976 39.85961914 C198.76000876 44.27993058 201.40628314 48.67510718 204.10406494 53.04264832 C205.17131422 54.77159154 206.23370899 56.50343037 207.29492188 58.23608398 C208.65806552 60.45695217 210.03142499 62.67158955 211.41601562 64.87915039 C212.02896484 65.88067139 212.64191406 66.88219238 213.2734375 67.9140625 C213.82435059 68.8004541 214.37526367 69.6868457 214.94287109 70.60009766 C216 73 216 73 215.8371582 75.00439453 C214.81364324 77.44423451 213.6313368 79.70924599 212.33203125 82.015625 C211.77596191 83.00667236 211.21989258 83.99771973 210.64697266 85.01879883 C209.73890869 86.61824341 209.73890869 86.61824341 208.8125 88.25 C208.1839209 89.36463623 207.5553418 90.47927246 206.90771484 91.62768555 C202.14344986 100.04978 197.28856856 108.41779247 192.39379883 116.76464844 C187.87328763 124.47828379 183.42529443 132.23156242 179 140 C173.46420488 149.71487362 167.87485982 159.39652203 162.22753906 169.04711914 C157.87186775 176.49353217 153.55483349 183.96159627 149.25 191.4375 C144.8970873 198.99215577 140.53682045 206.54205551 136.125 214.0625 C135.71411133 214.7649585 135.30322266 215.46741699 134.87988281 216.19116211 C132.12063054 220.87936946 132.12063054 220.87936946 131 222 C128.32212027 222.09512944 125.67011131 222.12555279 122.99194336 222.11352539 C122.15299026 222.11367142 121.31403717 222.11381744 120.44966125 222.1139679 C117.66302956 222.1132685 114.87646384 222.10547485 112.08984375 222.09765625 C110.16313209 222.09579217 108.23641995 222.09436822 106.30970764 222.09336853 C101.22812603 222.08954259 96.1465728 222.07971166 91.06500244 222.06866455 C85.88383366 222.05845206 80.70266031 222.05387126 75.52148438 222.04882812 C65.34764375 222.03808946 55.17382423 222.02101213 45 222 C46.41283723 218.38360716 47.99445287 215.09649971 49.94921875 211.73828125 C50.54259033 210.71468506 51.13596191 209.69108887 51.74731445 208.63647461 C52.38757568 207.53956299 53.02783691 206.44265137 53.6875 205.3125 C54.35866231 204.15718292 55.02947341 203.00166175 55.69995117 201.84594727 C57.09651685 199.43918191 58.49459993 197.03330705 59.89355469 194.62792969 C63.80048561 187.90520081 67.67054909 181.16112509 71.54760742 174.42114258 C76.64322948 165.5802058 81.82544556 156.79674255 87 148 C58.62 148 30.24 148 1 148 C-3.95 139.09 -3.95 139.09 -9 130 C-11.37386166 125.98307807 -13.75937394 121.98311056 -16.1875 118 C-23.47654903 105.9521409 -30.52758353 93.77889607 -37.52050781 81.55761719 C-38.54613716 79.78459853 -39.61787347 78.03776529 -40.72460938 76.31420898 C-42 74 -42 74 -41.453125 71.67578125 C-40.73382813 70.35126953 -40.73382813 70.35126953 -40 69 C-39.70673828 68.44103027 -39.41347656 67.88206055 -39.11132812 67.30615234 C-38.0199423 65.24943257 -36.8892672 63.21808289 -35.75 61.1875 C-35.09680786 60.01767578 -35.09680786 60.01767578 -34.43041992 58.82421875 C-29.64579171 50.29897203 -24.70015011 41.86799736 -19.7578125 33.43359375 C-17.08837192 28.87371291 -14.43920836 24.30275399 -11.8046875 19.72265625 C-11.45917343 19.12218475 -11.11365936 18.52171326 -10.75767517 17.90304565 C-9.07304309 14.97434438 -7.39052833 12.04445879 -5.71020508 9.11328125 C-5.10845459 8.0665625 -4.5067041 7.01984375 -3.88671875 5.94140625 C-3.08560669 4.54450562 -3.08560669 4.54450562 -2.26831055 3.11938477 C-1 1 -1 1 0 0 Z " fill="#000000" transform="translate(163,176)"/>
<path d="M0 0 C0.66 0 1.32 0 2 0 C3.58129883 2.31298828 3.58129883 2.31298828 5.45703125 5.5703125 C5.79621582 6.15425278 6.13540039 6.73819305 6.48486328 7.33982849 C7.60085728 9.2643827 8.70651203 11.19468127 9.8125 13.125 C10.58405991 14.45872646 11.35644564 15.7919755 12.12963867 17.12475586 C13.68957066 19.814751 15.24635798 22.5065252 16.80078125 25.19970703 C19.77129194 30.34039439 22.78893185 35.45288971 25.8125 40.5625 C26.58098267 41.87081787 26.58098267 41.87081787 27.36499023 43.20556641 C30.01624809 47.70811548 32.71939622 52.16829084 35.50390625 56.58984375 C36.06940186 57.49855225 36.63489746 58.40726074 37.2175293 59.34350586 C38.29196405 61.06554512 39.37991637 62.77925248 40.48364258 64.48266602 C40.9608374 65.25151123 41.43803223 66.02035645 41.9296875 66.8125 C42.56753174 67.81216797 42.56753174 67.81216797 43.21826172 68.83203125 C44.32642508 71.9052638 43.82392141 73.864715 43 77 C41.74755859 79.65527344 41.74755859 79.65527344 40.1484375 82.359375 C39.25354614 83.8899353 39.25354614 83.8899353 38.34057617 85.45141602 C37.69193604 86.53994873 37.0432959 87.62848145 36.375 88.75 C35.69865225 89.90038855 35.02329466 91.05135976 34.34887695 92.20288086 C32.94385962 94.60021533 31.53459299 96.99497617 30.12255859 99.38818359 C26.76608692 105.087075 23.48272432 110.82804729 20.1875 116.5625 C15.85572215 124.07560302 11.51231992 131.58167103 7.125 139.0625 C6.71403076 139.76511963 6.30306152 140.46773926 5.87963867 141.19165039 C3.12047717 145.87952283 3.12047717 145.87952283 2 147 C-0.67787973 147.09512944 -3.32988869 147.12555279 -6.00805664 147.11352539 C-6.84700974 147.11367142 -7.68596283 147.11381744 -8.55033875 147.1139679 C-11.33697044 147.1132685 -14.12353616 147.10547485 -16.91015625 147.09765625 C-18.83686791 147.09579217 -20.76358005 147.09436822 -22.69029236 147.09336853 C-27.77187397 147.08954259 -32.8534272 147.07971166 -37.93499756 147.06866455 C-43.11616634 147.05845206 -48.29733969 147.05387126 -53.47851562 147.04882812 C-63.65235625 147.03808946 -73.82617577 147.02101213 -84 147 C-82.58716277 143.38360716 -81.00554713 140.09649971 -79.05078125 136.73828125 C-78.16072388 135.20288696 -78.16072388 135.20288696 -77.25268555 133.63647461 C-76.61242432 132.53956299 -75.97216309 131.44265137 -75.3125 130.3125 C-74.64133769 129.15718292 -73.97052659 128.00166175 -73.30004883 126.84594727 C-71.90348315 124.43918191 -70.50540007 122.03330705 -69.10644531 119.62792969 C-65.19951439 112.90520081 -61.32945091 106.16112509 -57.45239258 99.42114258 C-52.35677052 90.5802058 -47.17455444 81.79674255 -42 73 C-70.38 73 -98.76 73 -128 73 C-128 72.67 -128 72.34 -128 72 C-126.41504982 72.06781174 -126.41504982 72.06781174 -124.79808044 72.13699341 C-114.78210589 72.54814877 -104.77058175 72.81868933 -94.74700832 72.95596504 C-89.59356014 73.0309509 -84.45081328 73.15322424 -79.30200195 73.38867188 C-57.42052089 75.52491577 -57.42052089 75.52491577 -37.72598267 68.54104614 C-32.41195966 62.84591525 -29.71777026 55.66742561 -27.26994324 48.39637756 C-25.15985127 42.75307888 -21.97266418 37.79239135 -18.8125 32.6875 C-17.66542797 30.73608809 -16.52282472 28.78203537 -15.38671875 26.82421875 C-14.83032715 25.86950684 -14.27393555 24.91479492 -13.70068359 23.93115234 C-9.08771428 15.98063417 -4.54274634 7.99079422 0 0 Z " fill="#020202" transform="translate(292,251)"/>
<path d="M0 0 C1.20085236 0.00539291 1.20085236 0.00539291 2.42596436 0.01089478 C3.26491745 0.01074875 4.10387054 0.01060272 4.96824646 0.01045227 C7.75487816 0.01115167 10.54144388 0.01894531 13.32806396 0.02676392 C15.25477563 0.028628 17.18148777 0.03005195 19.10820007 0.03105164 C24.18978169 0.03487758 29.27133491 0.04470851 34.35290527 0.05575562 C39.53407405 0.0659681 44.7152474 0.07054891 49.89642334 0.07559204 C60.07026397 0.08633071 70.24408348 0.10340804 80.41790771 0.12442017 C79.46547192 1.87094163 78.51298874 3.61743725 77.56048584 5.36392212 C76.76487244 6.82279594 76.76487244 6.82279594 75.95318604 8.31114197 C68.81772006 21.3863288 61.44177538 34.30441169 53.91009521 47.15567017 C50.14216828 53.58515214 46.41519034 60.0380251 42.70526123 66.50112915 C39.52680461 72.01552327 39.52680461 72.01552327 38.41790771 73.12442017 C35.74002798 73.2195496 33.08801902 73.24997295 30.40985107 73.23794556 C29.57089798 73.23809158 28.73194489 73.23823761 27.86756897 73.23838806 C25.08093727 73.23768866 22.29437155 73.22989502 19.50775146 73.22207642 C17.5810398 73.22021233 15.65432766 73.21878838 13.72761536 73.2177887 C8.64603374 73.21396276 3.56448052 73.20413183 -1.51708984 73.19308472 C-6.69825863 73.18287223 -11.87943197 73.17829143 -17.06060791 73.17324829 C-27.23444854 73.16250962 -37.40826805 73.14543229 -47.58209229 73.12442017 C-46.46554305 70.87735189 -45.34749502 68.63105059 -44.22857666 66.38516235 C-43.91434753 65.75238373 -43.60011841 65.1196051 -43.27636719 64.46765137 C-41.04345773 59.98979619 -38.67903531 55.64825303 -36.08209229 51.37442017 C-35.22795601 49.94549205 -34.37518816 48.51574542 -33.52349854 47.08535767 C-33.06088623 46.30901978 -32.59827393 45.53268188 -32.12164307 44.7328186 C-29.04189787 39.51493125 -26.03833159 34.25274726 -23.01959229 28.99942017 C-18.79435078 21.65953272 -14.56119225 14.32631107 -10.20709229 7.06192017 C-9.84414062 6.45525513 -9.48118896 5.84859009 -9.10723877 5.22354126 C-6.21445136 0.4292063 -5.70904239 0.01082497 0 0 Z " fill="#000000" transform="translate(211.58209228515625,101.87557983398438)"/>
<path d="M0 0 C0.66 0 1.32 0 2 0 C3.58129883 2.31298828 3.58129883 2.31298828 5.45703125 5.5703125 C5.79621582 6.15425278 6.13540039 6.73819305 6.48486328 7.33982849 C7.60085728 9.2643827 8.70651203 11.19468127 9.8125 13.125 C10.58405991 14.45872646 11.35644564 15.7919755 12.12963867 17.12475586 C13.68957066 19.814751 15.24635798 22.5065252 16.80078125 25.19970703 C19.77128466 30.34038178 22.78776949 35.45358791 25.8125 40.5625 C26.32554687 41.43181152 26.83859375 42.30112305 27.3671875 43.19677734 C30.04263834 47.72348398 32.74183535 52.23455953 35.46875 56.73046875 C36.02973389 57.65722412 36.59071777 58.58397949 37.16870117 59.53881836 C38.2403841 61.30638689 39.3158889 63.07164557 40.39575195 64.83422852 C40.86972412 65.61596436 41.34369629 66.3977002 41.83203125 67.203125 C42.25202393 67.89051758 42.6720166 68.57791016 43.10473633 69.28613281 C44 71 44 71 44 73 C15.95 73 -12.1 73 -41 73 C-39.60210955 69.50527389 -38.28283805 66.55006512 -36.453125 63.32421875 C-35.94515381 62.42622559 -35.43718262 61.52823242 -34.91381836 60.60302734 C-34.3647583 59.64090332 -33.81569824 58.6787793 -33.25 57.6875 C-32.67580322 56.6763916 -32.10160645 55.6652832 -31.51000977 54.62353516 C-26.79727046 46.34672692 -22.00651393 38.11621575 -17.19384766 29.8972168 C-11.38651426 19.97479096 -5.68193014 9.99464447 0 0 Z " fill="#F7F8FB" transform="translate(292,251)"/>
</svg>
